<svg width="24" height="24" viewBox="0 0 24 24" fill="none" xmlns="http://www.w3.org/2000/svg">
<path d="M3.11877 16.8666L2.30292 16.2883L2.30292 16.2883L3.11877 16.8666ZM4.42712 12.8907L3.42712 12.8793V12.8907H4.42712ZM4.45458 10.4868L5.45458 10.4983V10.4868H4.45458ZM20.8882 16.8859L21.7153 16.3237L21.7153 16.3237L20.8882 16.8859ZM19.6291 12.8907L18.6291 12.8787V12.8907H19.6291ZM19.6566 10.606L20.6566 10.618V10.606H19.6566ZM9 20.5999C8.44772 20.5999 8 21.0477 8 21.5999C8 22.1522 8.44772 22.5999 9 22.5999V20.5999ZM15 22.5999C15.5523 22.5999 16 22.1522 16 21.5999C16 21.0477 15.5523 20.5999 15 20.5999V22.5999ZM3.93462 17.4448C4.68473 16.3865 5.42712 14.8107 5.42712 12.8907H3.42712C3.42712 14.2886 2.88433 15.468 2.30292 16.2883L3.93462 17.4448ZM5.42706 12.9021L5.45452 10.4983L3.45465 10.4754L3.42719 12.8793L5.42706 12.9021ZM21.7153 16.3237C21.158 15.5038 20.6291 14.3113 20.6291 12.8907H18.6291C18.6291 14.8108 19.3411 16.3886 20.0612 17.448L21.7153 16.3237ZM20.629 12.9027L20.6565 10.618L18.6566 10.594L18.6292 12.8787L20.629 12.9027ZM20.6566 10.606C20.6566 5.58809 16.845 1.40009 12 1.40009V3.40009C15.6122 3.40009 18.6566 6.55988 18.6566 10.606H20.6566ZM20.43 18.9999C21.2272 18.9999 21.6917 18.4071 21.8676 17.9642C22.0475 17.5113 22.0848 16.8674 21.7153 16.3237L20.0612 17.448C20.0114 17.3747 20.0017 17.3118 20.0003 17.2843C19.9989 17.2577 20.0031 17.2405 20.0088 17.2259C20.0139 17.2133 20.0337 17.1686 20.0942 17.1177C20.1622 17.0605 20.2799 16.9999 20.43 16.9999V18.9999ZM5.45458 10.4868C5.45458 6.50655 8.4492 3.40009 12 3.40009V1.40009C7.21637 1.40009 3.45458 5.53476 3.45458 10.4868H5.45458ZM3.57109 16.9999C3.72452 16.9999 3.84358 17.0629 3.91081 17.1206C3.9704 17.1716 3.98865 17.2153 3.99263 17.2256C3.99738 17.2379 4.00128 17.2533 3.99962 17.279C3.9979 17.3056 3.9876 17.3701 3.93462 17.4448L2.30292 16.2883C1.9164 16.8336 1.95063 17.4885 2.12631 17.9445C2.2976 18.3892 2.76091 18.9999 3.57109 18.9999V16.9999ZM20.43 16.9999H3.57109V18.9999H20.43V16.9999ZM9 22.5999H15V20.5999H9V22.5999Z" fill="#132050"/>
</svg>
